<svg width="112" height="111" viewBox="0 0 112 111" fill="none" xmlns="http://www.w3.org/2000/svg">
<ellipse cx="55.6566" cy="55.4089" rx="55.6566" ry="55.4089" fill="#B1B4C5"/>
<ellipse cx="55.6566" cy="58.3251" rx="55.6566" ry="52.4926" fill="url(#paint0_linear_86139_1108)"/>
<path d="M80.1981 59.6531L79.3351 58.794C77.2731 56.74 73.9021 56.2926 71.3846 57.7331L66.0088 60.7922L67.1293 36.2908C67.1293 34.2368 65.451 32.5648 63.3864 32.5648C62.9406 32.5648 62.5115 32.6432 62.1134 32.7867L62.247 31.4719C62.2471 29.3942 60.5425 27.7045 58.4494 27.7045C56.5137 27.7045 54.8902 29.1498 54.6852 31.0032L51.2356 51.7526C51.1903 52.035 50.6992 52.0065 50.6467 51.8286L46.5725 35.1933C46.1267 33.646 44.6868 32.5649 43.0705 32.5649C41.9525 32.5649 40.913 33.0657 40.217 33.9391C39.5232 34.8125 39.2706 35.9362 39.528 37.0196L40.3195 40.3694C39.8689 40.3326 39.416 40.3931 38.9845 40.5379C37.3778 41.0707 36.3979 42.6679 36.6578 44.3552L39.056 58.0821C39.056 63.4979 40.0097 67.5051 40.8106 69.9116C41.2659 71.2845 41.4972 72.7286 41.4972 74.2036C41.4972 75.4876 41.3183 76.7656 40.9632 77.9996L39.1036 84.481C38.9987 84.8477 39.0726 85.2416 39.3015 85.5466C39.5327 85.8504 39.8927 86.0296 40.2765 86.0296H62.247C62.6403 86.0296 63.0074 85.8421 63.2363 85.5253C63.4675 85.2085 63.5295 84.8002 63.4055 84.43C63.3936 84.398 62.3733 81.2605 63.3388 76.9922C64.5642 76.0025 68.8528 72.5304 70.3929 71.1303C72.939 68.8152 79.9143 61.6622 80.21 61.3585C80.6749 60.8825 80.6701 60.123 80.1981 59.6531Z" fill="#3B4262"/>
<defs>
<linearGradient id="paint0_linear_86139_1108" x1="110.391" y1="110.818" x2="110.391" y2="7.57267" gradientUnits="userSpaceOnUse">
<stop stop-color="#F3F3F3"/>
<stop offset="1" stop-color="#DADADA"/>
</linearGradient>
</defs>
</svg>
