<svg width="112" height="111" viewBox="0 0 112 111" fill="none" xmlns="http://www.w3.org/2000/svg">
<ellipse cx="55.6566" cy="55.4089" rx="55.6566" ry="55.4089" fill="#B1B4C5"/>
<ellipse cx="55.6566" cy="58.3251" rx="55.6566" ry="52.4926" fill="url(#paint0_linear_86139_1139)"/>
<path d="M73.6408 30.3279C76.8694 28.3282 79.964 27.8946 82.3547 29.1082C87.7128 31.8284 86.938 41.9532 84.7453 46.3406C83.5075 48.817 81.3128 50.6268 78.217 51.7273C77.0179 55.5264 75.3322 58.7908 73.1818 61.491C74.5909 62.6703 76.3848 63.3288 78.2619 63.3289H78.3517L81.3732 60.3464C82.1338 59.5958 83.3668 59.5956 84.1271 60.3464C84.8873 61.0972 84.8875 62.3147 84.1271 63.0652L83.8596 63.3289H84.467C85.5424 63.3289 86.4151 64.1893 86.4152 65.2507C86.4152 66.3123 85.543 67.1736 84.468 67.1736H83.8596L84.1271 67.4373C84.8876 68.188 84.8876 69.4054 84.1271 70.156C83.747 70.5314 83.2484 70.7195 82.7502 70.7195C82.2518 70.7195 81.7536 70.5315 81.3732 70.156L78.3517 67.1736H78.2619C75.3973 67.1735 72.6633 66.1473 70.5373 64.3152C70.1215 64.6922 69.6942 65.0552 69.2531 65.4002C65.521 68.3189 60.9583 70.0157 55.6252 70.4802C56.2969 72.5046 56.4297 74.6958 55.9699 76.8337L55.9504 76.9226L58.2756 80.5837C58.8609 81.5052 58.5962 82.7327 57.6857 83.325C57.3578 83.538 56.9907 83.6394 56.6281 83.6394C55.9833 83.6394 55.3522 83.318 54.9777 82.7283L54.7717 82.4041L54.6418 83.0095C54.4421 83.9375 53.6304 84.5709 52.7287 84.571C52.5906 84.571 52.4502 84.556 52.3098 84.5252C51.2521 84.2922 50.5817 83.2362 50.8117 82.1658L50.9416 81.5603L50.6213 81.7693C49.7107 82.361 48.4984 82.094 47.9133 81.1726C47.328 80.2512 47.5916 79.0237 48.5021 78.4314L52.1203 76.0789L52.1389 75.99C52.5356 74.1448 52.2715 72.2416 51.423 70.5945C49.88 70.5509 48.2819 70.4198 46.6301 70.196C41.9463 69.5617 39.2895 71.6272 38.5861 72.2761C33.0766 77.3608 32.0029 86.342 31.9894 86.4587C31.8969 87.2815 31.3037 87.9603 30.5031 88.1589C30.3461 88.1977 30.1874 88.2166 30.0305 88.2166C29.3878 88.2165 28.773 87.8998 28.4006 87.3494C28.3124 87.2189 26.2353 84.1147 25.3244 79.7341C24.0875 73.785 25.5627 68.3277 29.59 63.9519C31.9258 61.414 34.9092 59.4846 38.216 58.3738C38.2591 58.3593 38.3027 58.346 38.3459 58.3318C38.2043 58.3677 38.0629 58.4039 37.9221 58.4421C36.8799 57.9568 35.7302 57.6951 34.5471 57.6951H34.4562L31.424 60.6785C31.0424 61.0536 30.5421 61.241 30.0422 61.241C29.5422 61.2409 29.0419 61.0538 28.6603 60.6785C27.8973 59.9278 27.8975 58.7104 28.6603 57.9597L28.9289 57.6951H28.3185C27.2393 57.6951 26.3644 56.8348 26.3644 55.7732C26.3645 54.7116 27.2393 53.8513 28.3185 53.8513H28.9289L28.6603 53.5867C27.8974 52.8359 27.8973 51.6185 28.6603 50.8679C29.4235 50.1175 30.6609 50.1177 31.424 50.8679L34.4562 53.8503H34.5461C37.7431 53.8503 40.779 55.119 42.9933 57.3543C44.7586 57.1777 46.5594 57.2072 48.343 57.449C53.289 58.1188 57.3337 57.4282 60.4562 55.3943C58.7182 53.2509 57.7463 50.5363 57.7463 47.6951V47.6043L54.757 44.5183C54.0046 43.7417 54.0046 42.4823 54.757 41.7058C55.5094 40.9295 56.7294 40.9295 57.4816 41.7058L57.7463 41.9793V41.3582C57.7463 40.2599 58.609 39.3689 59.673 39.3689C60.7371 39.3689 61.5998 40.2599 61.5998 41.3582V41.9793L61.8644 41.7058C62.6169 40.9295 63.8368 40.9295 64.5891 41.7058C65.7354 42.8891 64.9085 44.1883 64.5891 44.5183C64.2695 44.8481 61.5998 47.6043 61.5998 47.6043V47.6961C61.5999 49.5736 62.2355 51.3677 63.3723 52.7927C64.7827 51.1056 65.893 48.9855 66.6965 46.4334C66.1086 44.8088 65.1946 40.9603 67.5236 36.5964C68.7433 34.3112 71.0876 31.9095 73.6408 30.3279Z" fill="#3B4262"/>
<defs>
<linearGradient id="paint0_linear_86139_1139" x1="110.391" y1="110.818" x2="110.391" y2="7.57267" gradientUnits="userSpaceOnUse">
<stop stop-color="#F3F3F3"/>
<stop offset="1" stop-color="#DADADA"/>
</linearGradient>
</defs>
</svg>
