<svg width="152" height="152" viewBox="0 0 152 152" fill="none" xmlns="http://www.w3.org/2000/svg">
<circle cx="76" cy="76" r="76" fill="#B1B4C5"/>
<ellipse cx="76" cy="80" rx="76" ry="72" fill="url(#paint0_linear_86139_1772)"/>
<path d="M105.529 56.3231C104.969 56.1081 104.386 56.015 103.847 56.0526C103.07 56.107 102.442 56.4242 102.07 56.9433C99.8782 60.0268 98.0834 65.8501 96.6361 70.529C95.9718 72.6928 95.08 75.5885 94.4343 76.9628C93.7608 73.1125 94.5216 59.008 94.8167 53.5762L94.8215 53.4885C95.0261 49.7147 95.0536 49.053 95.0088 48.7624C94.6837 46.6923 93.8578 45.3335 92.553 44.7253C91.234 44.1085 89.5209 44.3814 87.6755 45.4967C86.7503 46.0587 86.4944 47.9878 85.7002 56.7314L85.6974 56.7699C85.26 61.5735 84.2536 72.634 83.0149 74.4759C81.6174 71.8989 79.6948 57.2565 78.8649 50.9186C78.2841 46.4798 77.9459 43.9312 77.7186 43.1616C77.2398 41.5489 75.2189 40.1767 73.2179 40.1007C71.5524 40.0177 70.1858 40.8687 69.5336 42.3473C68.3134 43.7112 68.7445 48.2342 70.0932 58.9469C70.7352 64.0452 72.0604 74.5765 71.2264 75.7577C69.5635 75.5762 66.7088 68.9796 62.7404 56.1456C61.6271 52.5514 61.2825 51.4703 60.9405 50.9971C60.2664 49.3489 57.9755 48.0776 55.9214 48.2212C55.746 48.2335 55.5755 48.2563 55.407 48.2886C54.3318 48.5031 51.8783 49.4972 52.4013 54.0847C53.8501 60.4448 55.4238 65.1147 56.9511 69.6471L56.982 69.7379C57.8958 72.4527 58.7597 75.0178 59.5624 77.8645C61.4545 84.5858 60.7188 88.756 60.7098 88.803C60.6469 89.2322 60.515 89.4942 60.3165 89.5859C60.2451 89.6196 60.1536 89.6397 60.0504 89.6469C59.4508 89.6888 58.5514 89.29 58.0879 89.03C57.0292 86.9976 51.7576 77.3105 46.9809 75.967L46.8093 75.9162L46.6356 75.9323C44.8837 76.0985 43.5955 76.7637 42.8082 77.909C41.5606 79.7201 42.077 82.0269 42.2023 82.4894L42.2727 82.6552C42.3117 82.7249 46.1424 89.7395 46.7352 93.0025C47.2465 95.8001 49.8915 98.8321 52.018 101.268L52.1056 101.367C52.7993 102.164 53.398 102.853 53.8701 103.491C60.0405 109.955 69.7988 115.393 69.8784 115.437C71.0959 116.339 71.7729 117.211 71.8444 117.962C71.8897 118.453 71.6356 118.747 71.6268 118.757L71.4143 118.979L72.7631 120.296L98.508 118.48L99.6056 113.428C103 99.1593 102.291 86.9936 102.28 86.9124C102.292 86.4648 103.244 82.1362 104.009 78.6389L104.031 78.5499C105.556 71.5828 107.453 62.9137 107.816 59.6165C107.975 58.2067 107.077 56.9116 105.529 56.3231Z" fill="#3B4262"/>
<defs>
<linearGradient id="paint0_linear_86139_1772" x1="150.74" y1="152" x2="150.74" y2="10.3868" gradientUnits="userSpaceOnUse">
<stop stop-color="#F3F3F3"/>
<stop offset="1" stop-color="#DADADA"/>
</linearGradient>
</defs>
</svg>
