<svg width="152" height="152" viewBox="0 0 152 152" fill="none" xmlns="http://www.w3.org/2000/svg">
<circle cx="76" cy="76" r="76" fill="#B1B4C5"/>
<ellipse cx="76" cy="80" rx="76" ry="72" fill="url(#paint0_linear_86139_1792)"/>
<path d="M105.441 65.0849C104.564 53.9814 92.1491 55.1151 92.1491 55.1151C86.9087 45.8366 78.7225 52.5572 78.7225 52.5572C72.4334 43.4636 64.5479 51.8903 64.5479 51.8903C50.9522 50.4176 51.4792 61.5827 51.4792 61.5827C51.1592 65.1319 53.3953 76.1125 53.3953 76.1125C51.3782 69.7837 47.0033 75.0372 47.0033 75.0372C41.625 83.3736 45.6735 87.9369 45.6735 87.9369C52.9512 96.5044 68.4607 106.787 68.4607 106.787C74.0766 110.018 71.7012 112.9 71.7012 112.9L105.669 107.262L106.45 100.792C111.614 85.1052 105.441 65.0849 105.441 65.0849Z" fill="#3B4262"/>
<defs>
<linearGradient id="paint0_linear_86139_1792" x1="150.74" y1="152" x2="150.74" y2="10.3868" gradientUnits="userSpaceOnUse">
<stop stop-color="#F3F3F3"/>
<stop offset="1" stop-color="#DADADA"/>
</linearGradient>
</defs>
</svg>
