<svg width="152" height="152" viewBox="0 0 152 152" fill="none" xmlns="http://www.w3.org/2000/svg">
<circle cx="76" cy="76" r="76" fill="#B1B4C5"/>
<ellipse cx="76" cy="80" rx="76" ry="72" fill="url(#paint0_linear_86139_1713)"/>
<path d="M56.1599 75.3494L64.3693 63.8064C60.957 63.2376 54.691 63.1115 49.5583 68.2442C41.4676 76.3349 38.1909 93.8128 37.5079 98.0437L58.0706 118.606C61.7722 118.289 78.1615 116.101 93.9538 100.309C94.1215 99.968 97.9682 97.1255 94.8231 93.9804C93.322 92.4793 90.837 92.5073 89.3033 94.041C88.5225 94.8218 87.308 94.8333 86.5434 94.0687C85.7788 93.3041 85.7903 92.0896 86.5712 91.3088L92.1515 85.7284C94.9874 82.8925 92.3143 78.1083 88.3563 79.2576L83.7876 83.1687C82.9532 83.896 81.7132 83.77 81.0275 82.9775C80.3188 82.1569 80.4703 80.9146 81.2767 80.2153C97.2354 66.2135 94.9059 67.8998 105.173 58.2763C109.009 55.0824 104.183 49.4328 100.403 52.6675L75.5656 75.0027C74.8432 75.6181 73.7357 75.6297 73.0246 74.9746C72.2041 74.266 72.1852 73.245 72.7216 72.4384L90.0463 45.5052C92.5787 42.0757 87.5947 38.2668 84.9274 41.7242L59.3117 77.5499C58.6939 78.4429 57.4491 78.6479 56.6006 78.0232C55.7496 77.452 55.5166 76.2119 56.1599 75.3494Z" fill="#3B4262"/>
<defs>
<linearGradient id="paint0_linear_86139_1713" x1="150.74" y1="152" x2="150.74" y2="10.3868" gradientUnits="userSpaceOnUse">
<stop stop-color="#F3F3F3"/>
<stop offset="1" stop-color="#DADADA"/>
</linearGradient>
</defs>
</svg>
