<svg width="152" height="152" viewBox="0 0 152 152" fill="none" xmlns="http://www.w3.org/2000/svg">
<circle cx="76" cy="76" r="76" fill="#B1B4C5"/>
<ellipse cx="76" cy="80" rx="76" ry="72" fill="url(#paint0_linear_86139_1782)"/>
<path d="M56.16 75.3494L64.3694 63.8064C60.9571 63.2376 54.6911 63.1115 49.5584 68.2442C41.4677 76.3349 38.191 93.8128 37.5079 98.0437L58.0707 118.606C61.7723 118.289 78.1616 116.101 93.9539 100.309C94.1216 99.968 97.9683 97.1255 94.8232 93.9804C93.3221 92.4793 90.8371 92.5073 89.3034 94.041C88.5226 94.8218 87.3081 94.8333 86.5435 94.0687C85.7789 93.3041 85.7904 92.0896 86.5712 91.3088L92.1516 85.7284C94.9875 82.8925 92.3143 78.1083 88.3564 79.2576L83.7877 83.1687C82.9533 83.896 81.7133 83.77 81.0276 82.9775C80.3189 82.1569 80.4704 80.9146 81.2768 80.2153C97.2355 66.2135 94.906 67.8998 105.173 58.2763C109.009 55.0824 104.183 49.4328 100.403 52.6675L75.5657 75.0027C74.8433 75.6181 73.7357 75.6297 73.0247 74.9746C72.2042 74.266 72.1853 73.245 72.7217 72.4384L90.0464 45.5052C92.5788 42.0757 87.5947 38.2668 84.9275 41.7242L59.3117 77.5499C58.694 78.4429 57.4492 78.6479 56.6007 78.0232C55.7497 77.452 55.5167 76.2119 56.16 75.3494Z" fill="#3B4262"/>
<defs>
<linearGradient id="paint0_linear_86139_1782" x1="150.74" y1="152" x2="150.74" y2="10.3868" gradientUnits="userSpaceOnUse">
<stop stop-color="#F3F3F3"/>
<stop offset="1" stop-color="#DADADA"/>
</linearGradient>
</defs>
</svg>
